<svg xmlns="http://www.w3.org/2000/svg" width="100%" height="100%" fill="currentColor" viewBox="0 0 88 88">
<path d="M41 60.37a2.367 2.367 0 0 0 1.794 2.298l.206.051v-4.682a2.366 2.366 0 0 0-2 2.332zM45 69.963a2.364 2.364 0 0 0 .206-4.631L45 65.281z" />
<path d="M44 51a13 13 0 1 0 13 13 13.015 13.015 0 0 0-13-13zm5 10a1 1 0 0 1-2 0v-.63a2.366 2.366 0 0 0-2-2.333v5.182l.69.173a4.357 4.357 0 0 1-.69 8.57V73a1 1 0 0 1-2 0v-1.037a4.36 4.36 0 0 1-4-4.332V67a1 1 0 0 1 2 0v.63a2.366 2.366 0 0 0 2 2.333V64.78l-.69-.173a4.357 4.357 0 0 1 .69-8.57V55a1 1 0 0 1 2 0v1.037a4.36 4.36 0 0 1 4 4.332z" />
<path d="M64 58.723V53a1 1 0 0 0-.485-.857l-4.787-2.872-2.87-4.786A.999.999 0 0 0 55 44h-5.723l-4.762-2.857a.998.998 0 0 0-1.03 0L38.723 44H33a.999.999 0 0 0-.857.485l-2.872 4.786-4.786 2.872A1 1 0 0 0 24 53v5.723l-2.857 4.762a.998.998 0 0 0 0 1.03L24 69.277V75a1 1 0 0 0 .485.857l4.786 2.872 2.872 4.786A.999.999 0 0 0 33 84h5.723l4.762 2.857a1 1 0 0 0 1.03 0L49.277 84H55a.999.999 0 0 0 .857-.485l2.871-4.786 4.787-2.872A1 1 0 0 0 64 75v-5.723l2.857-4.762a.998.998 0 0 0 0-1.03zM44 79a15 15 0 1 1 15-15 15.017 15.017 0 0 1-15 15z" />
<path d="m74.71 7.29-6-6a1.006 1.006 0 0 0-.9-.27.977.977 0 0 0-.73.59L49.89 42H55a3.01 3.01 0 0 1 2.57 1.46l2.04 3.39L74.93 8.37a1.008 1.008 0 0 0-.22-1.08zM30.43 43.46A3.01 3.01 0 0 1 33 42h5.11L20.92 1.61a.977.977 0 0 0-.73-.59.998.998 0 0 0-.9.27l-6 6a1.008 1.008 0 0 0-.22 1.08l15.32 38.48zM60.91 11l4.26-10H22.83l4.25 10h33.83z" />
</svg>