<svg xmlns="http://www.w3.org/2000/svg" viewBox="0 0 64 64" width="100%" height="100%" style="enable-background:new 0 0 64 64" xml:space="preserve">
<path style="fill:white" d="m39.359 25.164-.649-.658-5.785 5.733v-6.594h-1.851V32c0 .021.01.04.012.06l-1.9 1.884.649.658 1.782-1.765a.902.902 0 0 0 .381.087h5.531v-1.848h-4.134l5.964-5.912zm3.46 5.912v1.848h2.256v-1.848h-2.256zm-23.894 0v1.848h2.256v-1.848h-2.256zm12.15 11.744v2.254h1.851V42.82h-1.851zm0-23.894v2.254h1.851v-2.254h-1.851zm11.744 12.15v1.848h2.256v-1.848h-2.256zm-4.109-6.57-5.785 5.733v-6.594h-1.851V32c0 .021.01.04.012.06l-1.9 1.884.649.658 1.782-1.765a.902.902 0 0 0 .381.087h5.531v-1.848h-4.134l5.964-5.912-.649-.658zm-7.635 20.568h1.851V42.82h-1.851v2.254zm1.85-26.148h-1.851v2.254h1.851v-2.254zm-14 13.998h2.256v-1.848h-2.256v1.848zm27.847-15.233a.463.463 0 0 0-.464-.462H17.69a.46.46 0 0 0-.462.462v28.617a.46.46 0 0 0 .462.462h28.62a.467.467 0 0 0 .329-.135.47.47 0 0 0 .135-.327l-.002-28.617zm-28.62 28.156V18.153h27.693l.002 27.693H18.152zm24.667-12.923h2.256v-1.848h-2.256v1.848zm-4.109-8.418-5.785 5.733v-6.594h-1.851V32c0 .021.01.04.012.06l-1.9 1.884.649.658 1.782-1.765a.902.902 0 0 0 .381.087h5.531v-1.848h-4.134l5.964-5.912-.649-.658zm-7.635 20.568h1.851V42.82h-1.851v2.254zm1.85-26.148h-1.851v2.254h1.851v-2.254zm-14 13.998h2.256v-1.848h-2.256v1.848zm27.847-15.233a.463.463 0 0 0-.464-.462H17.69a.46.46 0 0 0-.462.462v28.617a.46.46 0 0 0 .462.462h28.62a.467.467 0 0 0 .329-.135.47.47 0 0 0 .135-.327l-.002-28.617zm-28.62 28.156V18.153h27.693l.002 27.693H18.152zm24.667-12.923h2.256v-1.848h-2.256v1.848zm-4.109-8.418-5.785 5.733v-6.594h-1.851V32c0 .021.01.04.012.06l-1.9 1.884.649.658 1.782-1.765a.902.902 0 0 0 .381.087h5.531v-1.848h-4.134l5.964-5.912-.649-.658zm-7.635 20.568h1.851V42.82h-1.851v2.254zm1.85-26.148h-1.851v2.254h1.851v-2.254zm-14 13.998h2.256v-1.848h-2.256v1.848zm28.242-18.95H44.88L41.087.672A.925.925 0 0 0 40.198 0H23.802a.926.926 0 0 0-.889.672L19.12 13.974h-2.29a2.861 2.861 0 0 0-2.858 2.858v30.337a2.861 2.861 0 0 0 2.858 2.858h2.29l3.793 13.301a.925.925 0 0 0 .889.672h16.397a.926.926 0 0 0 .889-.672l3.793-13.301h2.288a2.862 2.862 0 0 0 2.86-2.858V16.832a2.865 2.865 0 0 0-2.862-2.858zM24.499 1.851h15l3.457 12.123H21.044l3.455-12.123zm15 60.299h-15l-3.455-12.123h21.913L39.499 62.15zm8.678-14.982c0 .556-.452 1.01-1.01 1.01H43.6l-.108-.031-.008.031H20.515l-.008-.031-.108.031h-3.568c-.556 0-1.01-.454-1.01-1.01V16.832c0-.556.454-1.01 1.01-1.01h3.568l.108.031.008-.031h22.968l.008.031.108-.031h3.568c.558 0 1.01.454 1.01 1.01v30.336zm-1.869-29.939H17.69a.46.46 0 0 0-.462.462v28.617a.46.46 0 0 0 .462.462h28.62a.467.467 0 0 0 .329-.135.47.47 0 0 0 .135-.327l-.002-28.617a.463.463 0 0 0-.464-.462zM18.152 45.847V18.153h27.693l.002 27.693H18.152zm24.667-12.923h2.256v-1.848h-2.256v1.848zm-4.109-8.418-5.785 5.733v-6.594h-1.851V32c0 .021.01.04.012.06l-1.9 1.884.649.658 1.782-1.765a.902.902 0 0 0 .381.087h5.531v-1.848h-4.134l5.964-5.912-.649-.658zm-7.635 20.568h1.851V42.82h-1.851v2.254zm1.85-26.148h-1.851v2.254h1.851v-2.254zm-14 13.998h2.256v-1.848h-2.256v1.848z"/>
<path style="fill:#fdd300" d="M45.846 18.153H18.152v27.693h27.695l-.001-27.693zm-14.771.773h1.851v2.254h-1.851v-2.254zm-9.894 13.998h-2.256v-1.848h2.256v1.848zm11.744 12.15h-1.851V42.82h1.851v2.254zm4.605-13.998v1.848h-5.531a.902.902 0 0 1-.381-.087l-1.782 1.765-.649-.658 1.9-1.884c-.002-.021-.012-.04-.012-.06v-8.355h1.851v6.594l5.785-5.733.649.658-5.964 5.912h4.134zm7.545 1.848h-2.256v-1.848h2.256v1.848z"/>
</svg>